<svg xmlns="http://www.w3.org/2000/svg" viewBox="0 0 229 215" fill="#e94560" aria-label="Booty Bay Raid Review"><path d="m 12.847015,211.14844 c -2.765179,-0.20368 -8.5400693,-1.35689 -8.4060193,-1.67861 0.0394,-0.0946 1.85758,-1.51738 4.0403899,-3.16181 8.7621994,-6.60104 14.8893404,-12.5038 19.9090804,-19.17998 5.58837,-7.43245 5.06941,-6.93449 11.04717,-10.60013 9.1232,-5.59447 16.01728,-11.2503 27.0332,-22.17776 l 6.3957,-6.34435 1.36015,1.48821 c 1.75091,1.91578 4.19185,3.53792 6.13788,4.07897 l 1.53869,0.42779 0.002,2.93318 c 0.002,3.95209 0.33383,5.75152 1.47796,8.01624 l 0.96394,1.90806 -1.55006,2.06069 c -7.59086,10.09156 -18.10045,21.03159 -25.92018,26.98181 -9.67474,7.36175 -20.39443,12.4769 -30.05411,14.34103 -4.42344,0.85363 -9.885021,1.20796 -13.975321,0.90666 z m 195.084015,-0.0874 c -13.6745,-1.12833 -28.94071,-8.45534 -41.75799,-20.04174 -6.48448,-5.86175 -15.7624,-16.11105 -20.60561,-22.76297 l -1.0196,-1.40037 0.81633,-1.5316 c 1.1424,-2.14336 1.62659,-4.24549 1.62659,-7.06191 0,-5.26289 0.92627,-12.8152 1.59926,-13.03953 0.15251,-0.0508 0.88023,-0.49818 1.61715,-0.99408 l 1.33984,-0.90165 4.13802,4.29679 c 9.17864,9.53082 15.61275,15.53487 22.65885,21.1443 3.81847,3.0399 6.13547,4.65004 11.37708,7.90622 2.18282,1.356 4.35884,2.75926 4.83561,3.11836 0.47677,0.35909 2.67943,3.04584 4.89479,5.97054 6.27818,8.28841 11.78891,13.68108 21.08637,20.63462 2.11401,1.58106 3.87812,2.96439 3.92025,3.07406 0.10379,0.27022 -2.77725,0.96664 -5.36827,1.29766 -3.21091,0.41022 -8.15376,0.53925 -11.15867,0.2913 z m -100.2309,-2.53834 c -11.432264,-1.12771 -19.317204,-2.96272 -28.574994,-6.65008 -4.39084,-1.74886 -13.62604,-6.42165 -13.62604,-6.89445 0,-0.10608 1.70391,-1.89375 3.78647,-3.9726 l 3.78648,-3.77972 3.71835,1.85343 c 8.97088,4.47158 17.05159,6.95184 27.337854,8.39096 4.66321,0.65242 16.26095,0.65748 20.90208,0.009 9.8095,-1.37036 18.34127,-3.98932 26.94116,-8.26999 l 3.8828,-1.9327 3.88989,3.87402 c 3.54629,3.53183 3.84722,3.90391 3.40687,4.21234 -1.07999,0.75646 -8.28884,4.38242 -11.13322,5.59987 -8.08195,3.45925 -16.83013,5.86405 -25.79687,7.09133 -2.76606,0.3786 -16.03061,0.71411 -18.52083,0.46847 z m -70.739944,-38.44614 -1.39057,-1.82912 0.90412,-1.18446 c 1.16039,-1.52019 1.91151,-3.09119 2.42339,-5.06862 0.46255,-1.78682 0.53768,-5.11891 0.14619,-6.48392 -0.1841,-0.64192 -0.17426,-0.99549 0.0331,-1.18888 0.20461,-0.19086 0.32739,-0.18851 0.40042,0.008 0.20041,0.5383 4.6778,7.13345 6.21886,9.16033 0.85094,1.11919 1.54717,2.09059 1.54717,2.15866 0,0.35071 -8.16622,6.25748 -8.65108,6.25748 -0.13256,0 -0.86677,-0.8231 -1.63158,-1.82912 z m 149.231004,-0.92453 c -4.9834,-3.59507 -4.81118,-3.40807 -3.97876,-4.32028 2.16157,-2.3688 7.50455,-10.64906 9.69111,-15.01878 6.55118,-13.09217 9.87683,-26.79169 9.86883,-40.65321 -0.004,-6.89875 -0.62781,-13.34433 -1.88753,-19.502483 -0.75618,-3.69662 -1.11446,-3.3427 3.39599,-3.35464 3.46457,-0.009 4.0479,-0.0767 5.19684,-0.60196 0.71182,-0.3254 1.32481,-0.55887 1.3622,-0.51884 0.10443,0.11184 1.39504,6.71763 1.72009,8.804053 1.06114,6.81125 1.34477,17.25359 0.65757,24.20937 -1.84002,18.6244 -8.6647,36.21643 -19.93836,51.39532 -0.94572,1.2733 -1.84866,2.31141 -2.00656,2.30691 -0.15789,-0.005 -1.99453,-1.23996 -4.08142,-2.74546 z M 22.291876,168.59546 c -4.037771,-1.02048 -6.983591,-4.30525 -7.639541,-8.51855 -0.85651,-5.50157 3.04199,-10.80712 8.606521,-11.71277 1.52763,-0.24862 4.23985,0.01 5.13571,0.48915 0.46118,0.24681 0.97382,-0.21347 4.45916,-4.00375 2.16594,-2.35545 5.66448,-6.13711 7.77453,-8.4037 2.11006,-2.26659 4.64622,-5.02852 5.63593,-6.13762 l 1.79947,-2.01656 -0.44138,-1.51829 c -0.6754,-2.32328 -0.43782,-5.35274 0.59066,-7.53178 3.05292,-6.46823 11.4499,-7.96611 16.47681,-2.9392 1.88065,1.88065 2.71991,3.82598 2.90525,6.73416 l 0.15305,2.40142 2.64584,1.57803 c 1.45521,0.86791 3.85576,2.32225 5.33457,3.23186 l 2.68874,1.65385 0.91324,-0.62056 c 2.371,-1.61114 5.97194,-2.11676 8.60298,-1.20797 1.32322,0.45705 1.41749,0.45853 1.7198,0.027 0.30953,-0.44184 5.03915,-5.48338 10.785074,-11.49636 1.53578,-1.60716 3.43281,-3.6115 4.21563,-4.4541 l 1.4233,-1.53199 -0.46867,-1.30331 c -0.57101,-1.58794 -0.60197,-4.40977 -0.0674,-6.14725 0.92775,-3.0156 3.21664,-5.50547 6.04917,-6.58032 1.31319,-0.49831 2.17277,-0.63166 4.05829,-0.62957 2.15561,0.002 2.56296,0.0867 4.11879,0.85265 3.20567,1.57815 5.44499,4.71716 5.76714,8.08422 l 0.15728,1.64381 3.18699,1.5875 c 1.75284,0.87313 6.00513,2.94297 9.44953,4.59966 l 6.26254,3.01215 0.98944,-0.86873 c 2.22452,-1.95315 5.98984,-2.85482 8.81879,-2.11181 2.15952,0.56719 1.9544,0.69903 7.01146,-4.50665 6.47841,-6.66881 21.72277,-22.530843 27.70472,-28.827273 l 4.89728,-5.15474 -0.39065,-1.14651 c -0.53597,-1.57297 -0.3371,-5.61319 0.34775,-7.06485 1.10575,-2.34386 2.93785,-4.25166 5.14402,-5.35659 1.31122,-0.65671 1.73011,-0.72882 4.23334,-0.72882 2.48965,0 2.94583,0.0775 4.39329,0.74647 2.05618,0.95028 4.08913,2.99748 5.03387,5.06912 2.45807,5.39013 -0.36009,12.16614 -5.85529,14.07853 -1.67706,0.58364 -5.38312,0.59782 -6.88058,0.0263 l -1.05975,-0.40444 -3.81327,4.00032 c -2.0973,2.20018 -5.19397,5.42907 -6.88148,7.175323 -1.68751,1.74625 -7.41047,7.69938 -12.71769,13.22917 -5.30723,5.52979 -10.64319,11.08374 -11.85769,12.34211 l -2.2082,2.28795 0.45542,1.62308 c 0.64492,2.29848 0.42019,5.25759 -0.54375,7.15983 -1.04977,2.07162 -3.02708,4.03348 -4.96959,4.93074 -1.48308,0.68504 -1.92238,0.76046 -4.43002,0.76046 -2.61121,0 -2.89294,-0.0538 -4.54682,-0.86799 -3.18719,-1.56905 -5.43202,-4.77983 -5.70312,-8.15717 -0.0746,-0.92976 -0.15773,-1.69047 -0.18467,-1.69047 -0.0269,0 -4.25991,-2.02472 -9.40662,-4.49938 l -9.35765,-4.49938 -0.67747,0.62081 c -2.39253,2.19246 -5.98577,3.03763 -9.28073,2.18293 -0.7934,-0.20581 -1.52465,-0.32345 -1.62501,-0.26142 -0.10036,0.062 -1.99775,2.04611 -4.21642,4.40908 -2.21868,2.36298 -5.2431,5.54647 -6.72095,7.07444 -1.477848,1.52797 -3.412688,3.56868 -4.299654,4.53492 l -1.61267,1.75679 0.40941,1.15363 c 0.58411,1.64588 0.57746,4.80743 -0.0137,6.51454 -0.99898,2.88474 -3.56275,5.42592 -6.44844,6.39161 -6.79255,2.27311 -13.68098,-2.55944 -13.64458,-9.5723 l 0.0107,-2.05311 -3.86976,-2.27719 c -2.12837,-1.25246 -4.28648,-2.54186 -4.79581,-2.86534 -1.94047,-1.23242 -1.94779,-1.23358 -3.05012,-0.48453 -2.25384,1.53153 -5.62331,2.045 -8.26724,1.25983 l -1.35925,-0.40365 -1.13617,1.25485 c -3.61556,3.9932 -10.89856,11.87609 -16.27055,17.6107 l -1.67341,1.78637 0.41546,0.99175 c 0.2285,0.54547 0.48313,1.71202 0.56584,2.59234 0.66776,7.10705 -6.03617,12.84661 -12.96094,11.09649 z m 91.411454,-6.28673 c -0.15361,-0.18509 -0.42494,-1.16735 -0.60296,-2.18281 -0.17802,-1.01545 -0.45387,-1.98445 -0.613,-2.15332 -0.31234,-0.33145 -3.81003,-0.94644 -4.15838,-0.73115 -0.11632,0.0719 -0.28566,0.57302 -0.37631,1.11362 -0.40496,2.41498 -0.98183,3.39229 -1.81387,3.073 -0.65147,-0.24999 -1.00206,-1.06287 -1.472,-3.41302 l -0.42325,-2.11666 -1.50699,-0.52181 c -1.81156,-0.62728 -2.00721,-0.50041 -2.2811,1.47918 -0.19856,1.43514 -0.577238,2.38367 -1.269118,3.17899 -0.29008,0.33344 -0.58771,0.38445 -1.3025,0.22324 -2.230786,-0.50312 -3.942426,-2.56053 -4.915486,-5.90846 l -0.60397,-2.07802 1.05329,-0.82794 c 1.62551,-1.27775 3.000616,-2.81795 3.877106,-4.34258 0.43921,-0.76398 0.83838,-1.38906 0.88706,-1.38906 0.0487,0 0.58518,0.89975 1.19222,1.99945 0.756178,1.36986 1.519308,2.32795 2.423538,3.04271 1.97898,1.56429 2.24119,1.44088 3.19628,-1.50431 0.46415,-1.43131 0.71077,-1.83533 1.15933,-1.89926 0.87438,-0.12461 1.41461,0.87617 1.41461,2.62054 0,2.54666 0.20063,3.08706 1.27813,3.44267 0.52334,0.17271 1.60508,0.32617 2.40387,0.34101 l 1.45236,0.027 0.41379,-2.54433 c 0.42538,-2.61557 0.79433,-3.40879 1.58553,-3.40879 0.6346,0 0.98904,0.92414 1.33622,3.48394 0.16445,1.21253 0.39893,2.30705 0.52107,2.43227 0.32001,0.32806 3.92638,-0.0859 4.33849,-0.49805 0.20246,-0.20246 0.41487,-1.30629 0.50956,-2.64811 0.30784,-4.36208 2.06828,-4.89566 2.86085,-0.86711 0.40585,2.06293 0.70648,2.26828 2.23646,1.52763 0.87063,-0.42147 1.67493,-1.17188 2.79371,-2.60653 5.75461,-7.37937 6.07539,-7.57092 12.67853,-7.57092 h 4.11377 l -0.85312,1.11919 c -0.46921,0.61555 -0.92178,1.33553 -1.0057,1.59995 -0.13738,0.43282 -0.35526,0.4614 -2.18489,0.28664 -1.20426,-0.11503 -2.22695,-0.09 -2.51002,0.0615 -0.78672,0.42104 -1.24081,1.61574 -2.32969,6.12941 -1.22955,5.09681 -1.64746,6.34315 -2.57755,7.68719 -0.83842,1.21155 -2.59284,2.29837 -3.7102,2.29837 -0.67322,0 -0.9514,-0.21088 -1.6304,-1.23598 -0.58412,-0.88186 -0.81868,-1.54964 -0.81868,-2.33068 0,-0.60209 -0.15178,-1.30226 -0.33727,-1.55594 -0.31864,-0.43576 -0.42058,-0.42937 -1.84506,0.11575 -0.82928,0.31735 -1.56228,0.77004 -1.62888,1.00599 -0.0666,0.23594 -0.26195,1.14336 -0.4341,2.01649 -0.39999,2.02868 -0.92232,3.04271 -1.56732,3.04271 -0.7084,0 -1.29873,-0.95155 -1.4914,-2.40395 -0.0899,-0.67785 -0.24805,-1.36929 -0.35141,-1.53651 -0.24544,-0.39714 -3.67143,0.062 -4.12687,0.55313 -0.17579,0.18954 -0.46599,1.11852 -0.64488,2.06441 -0.17889,0.94589 -0.43671,1.92815 -0.57293,2.18281 -0.28813,0.53867 -1.36065,0.61547 -1.76647,0.12649 z m -88.685484,-18.16745 -2.24896,-0.14914 -1.00745,-2.91042 c -2.317141,-6.69403 -3.701461,-12.57942 -4.729701,-20.10833 -0.83765,-6.13327 -0.83675,-17.90444 0.002,-24.20938 1.58932,-11.949303 4.595621,-22.110503 9.344431,-31.583863 2.38778,-4.76336 2.82451,-5.43911 3.6268,-5.61173 3.10886,-0.66889 7.75482,-2.52577 9.59114,-3.83334 l 0.81274,-0.57872 1.30042,1.28086 c 0.71523,0.70447 1.30041,1.3792 1.30041,1.49939 0,0.1202 -0.69536,1.25577 -1.54524,2.52349 -6.60946,9.85895 -11.5989,23.00229 -13.37984,35.245583 -0.8237,5.66259 -1.02136,9.08095 -0.87206,15.08125 0.2221,8.92627 1.35815,15.9214 3.91849,24.12778 0.71243,2.28345 1.29532,4.27162 1.29532,4.41815 0,0.40837 -4.51682,5.06291 -4.85871,5.00686 -0.16537,-0.0271 -1.31269,-0.11641 -2.54962,-0.19844 z m 84.963384,-4.43801 c -1.35526,-0.66765 -1.94457,-1.78496 -1.78486,-3.38405 0.23324,-2.33533 3.81598,-10.73016 5.07895,-11.90064 1.98436,-1.83904 3.28415,-0.17564 6.47099,8.28121 1.34574,3.57117 1.44607,4.1926 0.86113,5.33395 -0.51848,1.01167 -1.97649,2.12194 -2.78652,2.12194 -0.28411,0 -1.06003,-0.53578 -1.72425,-1.19062 -0.66423,-0.65485 -1.36112,-1.19063 -1.54865,-1.19063 -0.18753,0 -0.86917,0.53578 -1.51475,1.19063 -1.28076,1.29913 -1.70508,1.40177 -3.05204,0.73821 z m 19.54702,-12.14166 c -2.77763,-0.74137 -4.63463,-1.81808 -6.88023,-3.98924 l -2.14078,-2.06981 1.44279,-0.77095 1.44279,-0.77094 1.41407,0.60659 c 2.97628,1.27675 12.92344,6.18699 12.92344,6.37944 0,0.33834 -3.57869,1.03925 -5.2116,1.02073 -0.8444,-0.01 -2.19012,-0.19219 -2.99048,-0.40582 z m -41.561414,-3.26275 c -2.74548,-1.81853 -3.95055,-4.79977 -3.943,-9.75464 0.004,-2.89635 0.54874,-5.61923 1.36042,-6.80525 1.30617,-1.90855 4.00644,-3.09591 7.10233,-3.12305 2.10455,-0.0185 3.982426,0.43087 6.819836,1.63178 1.838898,0.7783 1.800328,0.70709 2.028738,3.74548 l 0.14917,1.98438 -3.506688,3.70967 c -1.928666,2.04032 -4.704986,4.98822 -6.169586,6.55089 l -2.66291,2.84122 z m 48.705164,-14.62874 -7.01146,-3.45061 2.24896,-0.78963 c 5.19925,-1.82552 10.36849,-0.62158 12.01943,2.79936 1.14768,2.37813 1.17592,5.00453 0.0529,4.91521 -0.16408,-0.013 -3.45349,-1.57649 -7.30979,-3.47433 z M 70.569926,105.869 c -5.99995,-1.31338 -13.53102,-4.85264 -18.64725,-8.76336 -2.13815,-1.63435 -5.35886,-4.91118 -6.60007,-6.715083 -2.87382,-4.1766 -2.88617,-9.10495 -0.0291,-11.61348 1.2543,-1.10129 2.2476,-1.56384 7.10871,-3.31029 8.22715,-2.95577 10.95842,-4.44253 14.5004,-7.89326 2.82444,-2.75167 3.70529,-4.06244 10.34357,-15.391812 4.28511,-7.31329 10.47844,-12.23367 18.94457,-15.05081 2.777306,-0.92416 6.748764,-1.74779 8.435354,-1.74938 l 0.89473,-8.5e-4 -0.1718,1.12448 c -0.39564,2.58945 -0.46824,4.92327 -0.19803,6.36557 0.31661,1.68991 1.34233,3.93799 2.23818,4.90541 1.34662,1.45421 4.36277,2.42121 7.55198,2.42121 3.72414,0 6.42204,-1.43558 7.95576,-4.23334 0.93273,-1.70146 0.94278,-1.75363 0.94278,-4.89479 0,-1.74625 -0.0993,-3.75849 -0.22063,-4.47166 l -0.22063,-1.29666 2.07271,0.17495 c 6.7147,0.56677 14.28353,3.87537 19.85123,8.67766 3.16531,2.73018 4.82058,5.00419 9.21413,12.658422 4.06993,7.09042 4.64383,7.90609 7.49164,10.64765 3.9895,3.84065 5.74467,4.81086 14.33134,7.92192 6.20745,2.24904 6.26305,2.27615 7.51981,3.66723 l 0.99775,1.10439 -1.01764,1.08456 c -0.5597,0.5965 -2.57234,2.69684 -4.47255,4.66742 -8.67863,9.000053 -15.43408,16.065203 -16.56524,17.324683 -1.13714,1.26614 -1.42993,1.43293 -3.70416,2.11017 -1.35819,0.40445 -2.65317,0.78366 -2.87773,0.84268 -0.25193,0.0662 -0.79416,-0.39866 -1.41581,-1.21383 -3.62417,-4.75231 -13.76161,-9.45196 -25.0311,-11.60422 -14.14675,-2.701773 -28.57466,-1.640213 -41.539574,3.05635 -6.33504,2.29487 -11.74926,5.51873 -13.99166,8.33123 -1.33091,1.66928 -1.2625,1.64858 -3.69167,1.11684 z M 53.689096,63.497847 c -2.74507,-3.00447 -6.12214,-6.71799 -7.50459,-8.25229 -1.38244,-1.53429 -3.12539,-3.440172 -3.87321,-4.235282 -1.34472,-1.42977 -1.36655,-1.44065 -1.98438,-0.98947 -5.53078,4.038922 -9.38962,5.468202 -14.76328,5.468202 -4.20703,0 -8.308261,-1.24192 -11.658291,-3.530332 -5.3501594,-3.65471 -9.4397593,-10.69506 -10.3180193,-17.76274 -0.6738,-5.42229 0.93816,-12.00054 4.1291999,-16.85083 l 1.39106,-2.11438 -0.90599,-1.18691 c -1.83409,-2.40278 -2.1048599,-5.2033207 -0.76787,-7.9420747 1.188,-2.433563 3.7261904,-4.058564 6.3393294,-4.058564 1.43777,0 3.42231,0.747257 4.55153,1.713831 0.81339,0.696235 1.33251,0.932002 2.052101,0.932002 2.31363,0 3.49741,1.610267 3.21442,4.372462 l -0.16833,1.6430027 1.26055,1.027171 c 4.46579,3.63893 13.78568,12.7604 20.51196,20.07525 l 1.21472,1.32101 3.43958,-3.37722 c 4.12868,-4.05383 5.45447,-4.81567 8.37346,-4.81163 3.19516,0.004 4.89719,1.32036 5.08967,3.93509 0.18896,2.56702 -1.62702,4.10787 -4.85502,4.11947 -1.58702,0.006 -1.63935,0.0294 -2.78209,1.26258 -1.70374,1.83851 -3.1411,3.65298 -3.1411,3.96521 0,0.14999 0.50602,0.72465 1.12448,1.27703 0.61847,0.55238 4.67423,4.49475 9.01281,8.7608 l 7.88833,7.756472 -1.00916,1.65038 c -3.42262,5.59734 -5.49365,7.88222 -9.37958,10.34812 l -1.49125,0.9463 z M 29.129446,46.620725 c 0.86732,-0.22088 2.31994,-0.7739 3.22804,-1.22891 1.6591,-0.83132 3.77286,-2.54713 3.77286,-3.06257 0,-0.15206 -0.86321,-1.08495 -1.91823,-2.0731 -5.00785,-4.69037 -12.73635,-12.74123 -14.850441,-15.46985 -2.58657,-3.33845 -5.02541,-6.07437 -5.41479,-6.07437 -0.38056,0 -1.84443,2.40623 -2.690939,4.42322 -1.01266,2.4129 -1.4237105,4.96989 -1.24289,7.73171 0.46318,7.07445 5.926379,13.99639 12.42895,15.74761 1.84656,0.4973 4.7487,0.50002 6.68744,0.006 z M 168.15741,67.599297 c -2.95867,-2.01993 -5.44221,-4.66957 -7.61866,-8.12821 -1.04849,-1.66616 -1.90634,-3.17326 -1.90634,-3.34909 0,-0.17584 4.06474,-4.308362 9.03276,-9.183372 l 9.03275,-8.86367 -1.42598,-1.65465 c -3.23221,-3.75051 -2.78113,-3.43341 -4.99786,-3.51339 -3.25556,-0.11746 -4.49792,-1.17367 -4.49792,-3.82397 0,-1.54384 0.73606,-2.79984 2.11161,-3.6032 0.6986,-0.408 1.39682,-0.53842 2.90952,-0.54347 2.93151,-0.01 4.17588,0.69664 8.45774,4.80139 l 3.49044,3.34606 0.61608,-0.63746 c 0.33884,-0.35061 2.35936,-2.54246 4.49003,-4.8708 3.77732,-4.12774 7.33756,-7.58408 14.26946,-13.85309 l 3.40426,-3.078701 -0.14159,-1.5615007 c -0.16179,-1.784248 0.0862,-2.631834 1.07233,-3.665559 0.58126,-0.609299 0.91519,-0.727605 2.05371,-0.727605 1.12278,0 1.47131,-0.119693 2.00102,-0.687207 2.39451,-2.5653816 7.06954,-2.5559056 9.64499,0.01955 2.85965,2.859649 2.93975,8.0418317 0.16313,10.5546317 l -0.54545,0.49362 1.01129,1.49043 c 5.86635,8.64584 6.25369,19.25895 1.02152,27.98952 -3.10654,5.18368 -7.2156,8.49537 -12.63842,10.185943 -1.70815,0.53251 -2.53684,0.61875 -5.95313,0.6195 -3.80665,8.5e-4 -4.07141,-0.0348 -6.48229,-0.87211 -2.63371,-0.914743 -5.01749,-2.200133 -7.39977,-3.990143 l -1.41795,-1.06542 -1.08124,1.23978 c -3.41962,3.921013 -16.53489,18.338643 -16.64814,18.301303 -0.0239,-0.008 -0.93649,-0.62399 -2.0279,-1.36911 z m 38.98652,-21.113152 c 5.06257,-1.56367 9.99182,-7.1416 11.44621,-12.95252 0.69242,-2.7665 0.40564,-6.92188 -0.68071,-9.86329 -0.47079,-1.27469 -1.29079,-2.98159 -1.82222,-3.79311 l -0.96626,-1.47549 -1.53401,1.67645 c -0.8437,0.92205 -2.36579,2.74723 -3.38241,4.05596 -2.70323,3.47996 -9.67554,10.87029 -13.41145,14.21552 -1.78565,1.59892 -3.37169,3.14079 -3.52454,3.42639 -0.39164,0.73179 0.25229,1.62062 1.97022,2.71957 3.74938,2.39845 8.18392,3.1399 11.90517,1.99052 z m -18.5593,15.802362 c -1.06153,-1.77519 -2.09877,-3.46678 -2.30497,-3.75908 -0.34387,-0.48745 -0.27168,-0.64607 0.87173,-1.91557 l 1.24665,-1.38411 2.82558,1.43314 c 1.55407,0.78822 3.48884,1.64221 4.29948,1.89774 0.81064,0.25553 1.47153,0.53216 1.46865,0.61472 -0.003,0.0826 -0.6116,0.50731 -1.35269,0.94387 -1.5268,0.89941 -3.46272,2.92374 -4.22501,4.41795 -0.28227,0.55331 -0.6001,0.99992 -0.70628,0.99248 -0.10619,-0.007 -1.0616,-1.46595 -2.12314,-3.24114 z M 67.748046,29.229115 c 0,-1.85518 -0.11121,-2.40928 -0.74093,-3.69163 -0.4342,-0.88421 -1.29828,-2.00992 -2.08728,-2.71931 -0.7405,-0.66577 -1.30005,-1.24684 -1.24345,-1.29127 0.57287,-0.44964 3.9439,-2.29697 6.72253,-3.68394 19.9408,-9.9536147 42.755734,-12.8485747 64.817874,-8.2246607 5.26679,1.1038397 10.46697,2.6756107 16.13499,4.8768507 2.89097,1.12275 12.75353,5.95576 13.76293,6.74434 l 0.52916,0.41341 -0.52916,0.28707 c -0.29105,0.15789 -1.07992,0.84963 -1.75305,1.53722 -1.72666,1.76372 -2.69345,4.9216 -2.13071,6.95966 0.14807,0.53629 0.17419,0.97507 0.058,0.97507 -0.11616,0 -0.91024,-0.42172 -1.76461,-0.93715 -6.3302,-3.81893 -15.32312,-7.47493 -23.38154,-9.50556 -6.42581,-1.61924 -9.92446,-2.14669 -16.68711,-2.51572 -12.45432,-0.67962 -25.206374,1.31031 -36.736544,5.73265 -3.84847,1.47607 -10.46114,4.62561 -13.28594,6.32795 -0.8194,0.49381 -1.53378,0.89783 -1.5875,0.89783 -0.0537,0 -0.0977,-0.98226 -0.0977,-2.18281 z"/></svg>
